<?xml version="1.0" encoding="UTF-8"?>
<svg width="512px" height="512px" viewBox="0 0 512 512" version="1.1" xmlns="http://www.w3.org/2000/svg" xmlns:xlink="http://www.w3.org/1999/xlink">
    <title>brain</title>
    <g id="brain" stroke="none" fill="none" fill-rule="evenodd" stroke-width="1">
        <g id="brain-circuit" fill="#000000">
            <path d="M512,235.626667 C512,202.688 496,171.157333 469.205333,149.504 C466.752,110.848 438.741333,78.6346667 401.024,67.84 C395.733333,50.8586667 385.685333,35.3493333 371.776,23.1893333 C351.530667,5.48266667 325.077333,-2.70933333 299.392,0.810666667 L299.392,0.810666667 C282.986667,3.02933333 268.117333,10.048 256.021333,20.4373333 C243.904,10.048 229.056,3.02933333 212.650667,0.810666667 L212.650667,0.810666667 C186.858667,-2.688 160.533333,5.504 140.266667,23.2106667 C126.357333,35.3706667 116.309333,50.88 111.018667,67.8613333 C73.28,78.656 45.2906667,110.869333 42.8373333,149.525333 C16.0426667,171.157333 0.0426666667,202.688 0.0426666667,235.648 C0.0426666667,253.525333 4.24533333,270.784 12.352,286.549333 C4.24533333,302.314667 0.0426666667,319.573333 0.0426666667,337.472 C0.0426666667,374.357333 18.1333333,408.576 48.0426667,429.696 C65.3226667,478.784 111.36,512 164.394667,512 C200.704,512 233.408,496.277333 256.042667,471.274667 C278.677333,496.277333 311.381333,512 347.690667,512 C400.725333,512 446.784,478.784 464.042667,429.696 C493.952,408.554667 512.042667,374.357333 512.042667,337.472 C512.042667,319.594667 507.84,302.314667 499.733333,286.549333 C507.84,270.784 512.042667,253.525333 512.042667,235.648 L512,235.626667 Z M164.352,448 C136.533333,448 112.725333,428.992 106.432,401.770667 C104.341333,392.789333 98.496,385.130667 90.3466667,380.778667 C74.0906667,372.074667 64,355.477333 64,337.472 C64,323.498667 70.1013333,313.002667 75.2213333,306.666667 C84.6933333,294.933333 84.6933333,278.186667 75.2213333,266.453333 C70.1013333,260.117333 64,249.621333 64,235.648 C64,218.986667 74.2186667,203.285333 91.392,193.664 C103.274667,186.986667 109.610667,173.525333 107.2,160.128 C106.901333,158.485333 106.624,156.8 106.624,155.072 C106.624,138.901333 123.178667,128.021333 138.666667,128.021333 C156.330667,128.021333 170.666667,113.706667 170.666667,96.0213333 C170.666667,86.9973333 175.04,77.8026667 182.336,71.424 C185.664,68.5226667 192.192,64.0213333 200.746667,64.0213333 C213.333333,64.0213333 224,77.7813333 224,91.0933333 L224,170.688 L160,170.688 C142.336,170.688 128,185.002667 128,202.688 C128,220.373333 142.336,234.688 160,234.688 L224,234.688 L224,298.688 L160,298.688 C142.336,298.688 128,313.002667 128,330.688 C128,348.373333 142.336,362.688 160,362.688 L224,362.688 L224,388.394667 C224,421.290667 197.248,448.021333 164.352,448.021333 L164.352,448 Z M436.778667,306.645333 C441.898667,312.981333 448,323.477333 448,337.450667 C448,355.456 437.888,372.053333 421.653333,380.757333 C413.504,385.109333 407.658667,392.768 405.568,401.749333 C399.274667,428.970667 375.466667,447.978667 347.648,447.978667 C314.752,447.978667 288,421.226667 288,388.352 L288,319.978667 L309.333333,319.978667 C350.506667,319.978667 384,286.485333 384,245.312 L384,202.645333 C384,184.96 369.664,170.645333 352,170.645333 C334.336,170.645333 320,184.96 320,202.645333 L320,245.312 C320,251.2 315.2,255.978667 309.333333,255.978667 L288,255.978667 L288,91.072 C288,77.76 296.938667,65.728 307.946667,64.2346667 C318.314667,62.848 325.930667,68.1386667 329.685333,71.4026667 C336.981333,77.7813333 341.354667,86.976 341.354667,96 C341.354667,113.685333 355.690667,128 373.354667,128 C388.842667,128 405.397333,138.858667 405.397333,155.050667 C405.397333,156.8 405.098667,158.464 404.821333,160.106667 C402.432,173.504 408.768,186.965333 420.629333,193.642667 C437.802667,203.285333 448.021333,218.986667 448.021333,235.626667 C448.021333,249.6 441.92,260.074667 436.8,266.432 C427.328,278.165333 427.328,294.912 436.8,306.645333 L436.778667,306.645333 Z" id="Shape" fill-rule="nonzero"></path>
        </g>
    </g>
</svg>