<svg width="24" height="24" viewBox="0 0 24 24" fill="none" xmlns="http://www.w3.org/2000/svg">
<path fill-rule="evenodd" clip-rule="evenodd" d="M9 6C7.89543 6 7 6.89543 7 8C7 9.10457 7.89543 10 9 10H19C20.1046 10 21 9.10457 21 8C21 6.89543 20.1046 6 19 6H9ZM9 14C7.89543 14 7 14.8954 7 16C7 17.1046 7.89543 18 9 18H15C16.1046 18 17 17.1046 17 16C17 14.8954 16.1046 14 15 14H9Z" fill="black"/>
<path fill-rule="evenodd" clip-rule="evenodd" d="M4 3C4.55228 3 5 3.44772 5 4V20C5 20.5523 4.55228 21 4 21C3.44772 21 3 20.5523 3 20V4C3 3.44772 3.44772 3 4 3Z" fill="black"/>
</svg>
