<?xml version="1.0" encoding="UTF-8"?>
<svg width="450px" height="450px" viewBox="0 0 450 450" version="1.1" xmlns="http://www.w3.org/2000/svg" xmlns:xlink="http://www.w3.org/1999/xlink">
    <title>Group</title>
    <g id="Page-1" stroke="none" stroke-width="1" fill="none" fill-rule="evenodd">
        <g id="Frame-6" transform="translate(-291, -957)">
            <g id="Group" transform="translate(256.4578, 948.0141)">
                <rect id="Rectangle" fill="#000000" x="34.5422222" y="8.98588444" width="450" height="450" rx="50"></rect>
                <path d="M124.452057,133.857698 L175.153132,184.494307 C182.185546,191.520767 182.190372,202.917736 175.163912,209.950149 C175.160321,209.953744 175.156727,209.957337 175.153132,209.960929 L111.790642,273.248234 C104.758228,280.274694 104.753402,291.671663 111.779862,298.704076 C114.141876,301.068091 117.115359,302.727889 120.367317,303.497592 L264.127313,337.524 L377.520683,364.363402 C387.19452,366.65313 396.892906,360.667128 399.182634,350.993291 C400.621015,344.916298 398.806815,338.528001 394.389133,334.11406 L343.687623,283.477017 C336.65521,276.450557 336.650384,265.053588 343.676843,258.021175 C343.680435,258.01758 343.684029,258.013987 343.687623,258.010395 L407.049703,194.723501 C414.082116,187.697041 414.086942,176.300072 407.060483,169.267659 C404.698474,166.903649 401.725,165.243854 398.473049,164.474149 L254.712106,130.447324 L141.320505,103.608355 C131.646668,101.318628 121.948283,107.304632 119.658556,116.97847 C118.220176,123.055462 120.034376,129.443757 124.452057,133.857698 Z" id="Fill-1" fill="#FFFFFF"></path>
            </g>
        </g>
    </g>
</svg>