<?xml version="1.0" encoding="UTF-8"?>
<svg width="142px" height="121px" viewBox="0 0 142 121" version="1.1" xmlns="http://www.w3.org/2000/svg" xmlns:xlink="http://www.w3.org/1999/xlink">
    <title>Fill 1</title>
    <g id="Page-1" stroke="none" stroke-width="1" fill="none" fill-rule="evenodd">
        <path d="M8.41770434,13.9571438 L32.4872771,37.9967648 C35.6127942,41.1196358 35.6149393,46.1849552 32.4920683,49.3104723 C32.4904719,49.31207 32.4888749,49.3136671 32.4872771,49.3152635 L2.92386839,78.8440693 C-0.201648709,81.9669403 -0.203793794,87.0322597 2.91907721,90.1577768 C3.9688612,91.2084503 5.29040912,91.946138 6.73572415,92.2882282 L73.1123196,107.998838 L125.992649,120.515235 C130.292132,121.532892 134.602526,118.872446 135.620183,114.572963 C136.259463,111.872077 135.453152,109.032834 133.489738,107.071082 L109.419966,83.0312622 C106.294449,79.9083912 106.292304,74.8430718 109.415175,71.7175547 C109.416771,71.715957 109.418368,71.7143599 109.419966,71.7127635 L138.983186,42.1841467 C142.108703,39.0612757 142.110848,33.9959564 138.987977,30.8704392 C137.938195,29.8197682 136.616651,29.0820814 135.17134,28.7399902 L68.7943108,13.0291894 L15.9147925,0.512991499 C11.6153093,-0.504664946 7.30491594,2.1557813 6.28725949,6.45526451 C5.64797949,9.1561501 6.45429067,11.9953924 8.41770434,13.9571438 Z" id="Fill-1" fill="#FFFFFF"></path>
    </g>
</svg>