<?xml version="1.0" encoding="UTF-8"?>
<svg width="270px" height="270px" viewBox="0 0 270 270" version="1.1" xmlns="http://www.w3.org/2000/svg" xmlns:xlink="http://www.w3.org/1999/xlink">
    <title>Frame 7</title>
    <defs>
        <path d="M0,0 L270,0 L270,270 L0,270 L0,0 Z" id="path-1"></path>
    </defs>
    <g id="Frame-7" stroke="none" fill="none" xlink:href="#path-1" fill-rule="evenodd">
        <use fill="#FFFFFF" xlink:href="#path-1"></use>
        <path d="M26.8891712,54.8993033 L67.9210362,95.9488347 C73.3864601,101.415846 73.3864601,110.277939 67.9210362,115.74495 L17.1906309,166.495838 C11.7240846,171.963972 11.7253715,180.828282 17.1935053,186.294828 C19.0289015,188.129691 21.3381985,189.418265 23.8635342,190.016665 L138.228667,217.116437 L228.98181,238.621503 C236.50545,240.404322 244.049827,235.750466 245.832645,228.226825 C246.952231,223.50208 245.543737,218.534602 242.11082,215.100688 L201.078611,174.050812 C195.613187,168.583801 195.613187,159.721708 201.078611,154.254697 L251.80869,103.504135 C257.275236,98.0360015 257.273949,89.1716919 251.805815,83.7051457 C249.970424,81.8702866 247.661133,80.5817141 245.135804,79.983313 L130.769922,52.8832104 L40.0181803,31.3784883 C32.4945392,29.5956706 24.9501636,34.2495275 23.1673459,41.7731686 C22.0477608,46.4979124 23.4562549,51.46539 26.8891712,54.8993033 Z" id="Fill-1" fill="#000000"></path>
    </g>
</svg>