<?xml version="1.0" encoding="UTF-8"?>
<svg width="2016px" height="450px" viewBox="0 0 2016 450" version="1.1" xmlns="http://www.w3.org/2000/svg" xmlns:xlink="http://www.w3.org/1999/xlink">
    <title>Group</title>
    <g id="Page-1" stroke="none" stroke-width="1" fill="none" fill-rule="evenodd">
        <g id="Frame-6" transform="translate(-305, -981)" fill="#000000">
            <g id="Group" transform="translate(304.4578, 956)">
                <g transform="translate(534.5422, 25)" fill-rule="nonzero" id="glance-it">
                    <g>
                        <path d="M156.935572,81.2641084 C200.613434,81.2641084 223.468129,99.0406321 235.6573,121.388262 L247.205616,88.9629571 C248.198905,86.1740044 250.839324,84.3115124 253.799878,84.3115124 L301.971609,84.3115124 C302.379687,84.3115124 302.786983,84.3471967 303.188843,84.4181576 C306.995938,85.0904176 309.537224,88.7216521 308.864964,92.5287468 L265.114462,340.293454 C253.941056,404.79684 219.405072,450 121.383825,450 C50.7882111,450 0,419.018059 0,357.054176 L70.5956134,357.054176 C72.6271419,383.972912 95.4818369,395.654628 125.954764,395.654628 C168.616861,395.654628 191.979438,373.306998 198.074023,332.674944 L201.121316,314.89842 C183.345442,334.706546 159.474983,348.419865 125.446881,348.419865 C62.9773818,348.419865 17.7758739,300.1693 17.7758739,234.650113 C17.7758739,147.799097 80.2453735,81.2641084 156.935572,81.2641084 Z M1092.9623,91.4221219 C1163.55792,91.4221219 1210.28307,133.577878 1209.77519,191.986456 L1137.65593,191.986456 C1135.11652,166.591422 1116.83276,149.8307 1089.91501,149.8307 C1044.20562,149.8307 1017.79575,194.525959 1017.79575,239.221219 C1017.79575,275.790068 1038.61892,300.1693 1071.63125,300.1693 C1099.05689,300.1693 1118.35641,283.408578 1128.00617,256.489842 L1202.15696,256.489842 C1184.38108,324.040632 1138.67169,358.577878 1067.06032,358.577878 C1008.60276,358.577878 966.466426,327.214395 951.574773,281.254294 L939.580789,349.738314 C938.994123,353.087324 936.085788,355.530474 932.685782,355.530474 L875.292856,355.530474 C874.886508,355.530474 874.480933,355.495092 874.080724,355.424728 C870.273133,354.755286 867.72916,351.125933 868.398602,347.318342 L891.333105,216.873589 C892.856751,207.731377 893.872515,199.604966 893.872515,190.462754 C893.872515,164.559819 878.636052,150.3386 851.210418,150.3386 C812.103496,150.3386 789.248801,178.273138 780.614805,224.492099 L758.771225,349.733203 C758.186704,353.084577 755.277289,355.530474 751.875324,355.530474 L694.480857,355.530474 C694.076158,355.530474 693.672221,355.495378 693.273587,355.425581 C691.863946,355.178766 690.62717,354.526238 689.66226,353.609026 C688.398783,354.808205 686.69537,355.530474 684.846767,355.530474 L635.868403,355.530474 C605.395476,355.530474 592.190541,340.801354 592.190541,322.009029 L592.190541,321.501129 C571.367375,345.880361 546.989034,358.577878 508.389993,358.577878 C459.125428,358.577878 417.986977,334.706546 417.986977,285.948081 C417.986977,223.476298 464.712132,195.03386 540.386566,195.03386 L597.382457,195.03386 C600.826986,195.03386 603.759605,192.527941 604.296803,189.125559 L604.887594,185.383747 C605.903358,181.320542 606.411241,176.241535 606.411241,172.68623 C606.411241,153.893905 589.143249,143.735892 564.764907,143.735892 C529.721042,143.735892 518.547635,157.44921 512.45305,175.733634 L440.841672,175.733634 C455.570254,118.848758 498.232351,91.4221219 569.843729,91.4221219 C630.789582,91.4221219 675.99109,116.309255 675.99109,172.68623 C675.99109,180.812641 674.975326,189.446953 673.451679,198.589165 L660.246744,273.250564 C659.23098,277.82167 658.723098,281.884876 658.723098,283.916479 C658.723098,291.027088 662.278273,295.090293 670.912269,295.090293 L693.041793,295.090293 C693.449606,295.090293 693.856639,295.125932 694.258248,295.196801 C695.095294,295.34451 695.871169,295.635258 696.565169,296.03947 L730.843868,100.262256 C731.430295,96.9129828 734.33875,94.469526 737.738975,94.469526 L787.564832,94.469526 C791.336934,94.469526 794.430684,97.458437 794.560674,101.228299 L795.343386,123.927765 C814.642906,104.62754 840.037012,91.4221219 874.572995,91.4221219 C915.22235,91.4221219 956.273366,109.497516 964.863933,160.651121 C988.703805,117.037158 1033.60856,91.4221219 1092.9623,91.4221219 Z M426.894292,-1.33226763e-14 C427.306866,-1.33226763e-14 427.718632,0.0364750541 428.124782,0.108999187 C431.930577,0.788580534 434.464874,4.42469622 433.785292,8.23049088 L372.799937,349.760965 C372.203795,353.099481 369.30026,355.530474 365.908936,355.530474 L309.511282,355.530474 C309.105184,355.530474 308.699856,355.495135 308.299885,355.424857 C304.492222,354.755821 301.947863,351.126739 302.616899,347.319077 L362.626488,5.7886027 C363.214647,2.44123949 366.122229,9.76996262e-15 369.520871,2.66453526e-15 L426.894292,-1.33226763e-14 Z M590.635128,242.776524 L541.910212,242.776524 C507.882111,242.776524 490.614119,253.950339 490.614119,278.837472 C490.614119,296.613995 505.3427,306.772009 524.642221,306.772009 C564.764907,306.772009 588.127485,279.853273 594.22207,246.839729 L594.242997,246.615987 L594.249982,246.391378 C594.249982,244.394949 592.631557,242.776524 590.635128,242.776524 Z M166.07745,139.672686 C119.352296,139.672686 90.4030158,183.352144 90.4030158,229.063205 C90.4030158,269.187359 111.734064,290.011287 143.222755,290.011287 C189.94791,290.011287 219.405072,246.331828 219.405072,200.620767 C219.405072,160.496614 197.566141,139.672686 166.07745,139.672686 Z M1364.67923,91.4221219 C1274.27622,91.4221219 1217.39342,154.401806 1217.39342,241.252822 C1217.39342,307.78781 1261.57916,358.577878 1341.82454,358.577878 C1408.35709,358.577878 1458.63742,322.009029 1471.84236,267.155756 L1400.73886,267.155756 C1390.58122,290.519187 1375.34476,304.232506 1343.34818,304.232506 C1304.24126,304.232506 1287.98903,275.790068 1287.98903,247.34763 C1287.98903,245.316027 1287.98903,243.792325 1288.49692,241.760722 L1477.42906,241.760722 C1480.47635,230.586907 1482,213.826185 1482,200.620767 C1482,136.625282 1437.81426,91.4221219 1364.67923,91.4221219 Z M1297.13091,194.525959 C1305.25703,166.083521 1328.6196,144.751693 1360.61618,144.751693 C1389.56546,144.751693 1409.37286,158.972912 1409.37286,188.939052 C1409.37286,192.024616 1406.87151,194.525959 1403.78595,194.525959 L1297.13091,194.525959 L1297.13091,194.525959 Z" id="Combined-Shape"></path>
                    </g>
                </g>
                <g transform="translate(-34, 16.0141)" id="Combined-Shape">
                    <path d="M434.542222,8.98588444 C462.15646,8.98588444 484.542222,31.371647 484.542222,58.9858844 L484.542222,408.985884 C484.542222,436.600122 462.15646,458.985884 434.542222,458.985884 L84.5422222,458.985884 C56.9279847,458.985884 34.5422222,436.600122 34.5422222,408.985884 L34.5422222,58.9858844 C34.5422222,31.371647 56.9279847,8.98588444 84.5422222,8.98588444 L434.542222,8.98588444 Z M138.658556,131.97847 C137.220176,138.055462 139.034376,144.443757 143.452057,148.857698 L182.946224,188.296886 C189.978637,195.323346 189.983464,206.720315 182.957004,213.752728 C182.953412,213.756323 182.949819,213.759917 182.946224,213.763508 L129.816747,266.826463 C122.784334,273.852923 122.779507,285.249891 129.805967,292.282305 C132.167981,294.64632 135.141464,296.306118 138.393423,297.07582 L264.032304,326.813161 L359.304467,349.363402 C368.978304,351.65313 378.676689,345.667128 380.966418,335.993291 C382.404799,329.916298 380.590599,323.528001 376.172917,319.11406 L336.678362,279.674483 C329.645949,272.648024 329.641122,261.251055 336.667582,254.218642 L336.678362,254.207861 L389.807473,201.145272 C396.839887,194.118812 396.844713,182.721844 389.818253,175.68943 C387.456245,173.32542 384.48277,171.665625 381.23082,170.89592 L255.591084,141.158209 L160.320505,118.608355 C150.646668,116.318628 140.948283,122.304632 138.658556,131.97847 Z"></path>
                </g>
            </g>
        </g>
    </g>
</svg>