<?xml version="1.0" encoding="UTF-8"?>
<svg width="512px" height="512px" viewBox="0 0 512 512" version="1.1" xmlns="http://www.w3.org/2000/svg" xmlns:xlink="http://www.w3.org/1999/xlink">
    <title>golf</title>
    <g id="golf" stroke="none" fill="none" fill-rule="evenodd" stroke-width="1">
        <g id="Layer_1" fill="#FFFFFF">
            <path d="M256,213.333333 C234.588239,213.351896 213.203563,214.855952 192,217.834667 L192,190.72 L290.325333,150.016 C291.072,149.717333 291.818667,149.376 292.458667,149.013333 C309.06406,140.627975 320.100445,124.196275 321.581828,105.652844 C323.063211,87.1094133 314.775517,69.1339664 299.712,58.2186667 C298.666667,57.4506667 205.184,5.65333333 205.184,5.65333333 C188.65497,-2.61086983 169.025795,-1.72959172 153.303837,7.98256275 C137.58188,17.6947172 128.008019,34.8534571 128,53.3333333 L128,232.170667 C50.368,257.258667 3.78956126e-14,305.066667 3.78956126e-14,362.666667 C3.78956126e-14,447.808 110.058667,512 256,512 C401.941333,512 512,447.808 512,362.666667 C512,277.525333 401.941333,213.333333 256,213.333333 Z M256,448 C146.112,448 64,402.944 64,362.666667 C64,340.8 88.32,317.589333 128,300.8 L128,352 C128,369.673112 142.326888,384 160,384 C177.673112,384 192,369.673112 192,352 L192,282.752 C213.14089,279.132719 234.551545,277.31995 256,277.33326 C365.888,277.33326 448,322.389333 448,362.666667 C448,402.944 365.888,448 256,448 Z M362.666667,362.666667 C362.666667,386.230816 343.564149,405.333333 320,405.333333 C296.435851,405.333333 277.333333,386.230816 277.333333,362.666667 C277.333333,339.102517 296.435851,320 320,320 C343.564149,320 362.666667,339.102517 362.666667,362.666667 Z" id="Shape" fill-rule="nonzero"></path>
        </g>
    </g>
</svg>