<?xml version="1.0" encoding="UTF-8"?>
<svg width="512px" height="537px" viewBox="0 0 512 537" version="1.1" xmlns="http://www.w3.org/2000/svg" xmlns:xlink="http://www.w3.org/1999/xlink">
    <title>italic</title>
    <g id="italic" stroke="none" fill="none" fill-rule="evenodd" stroke-width="1">
        <g id="Bold" transform="translate(32, 13)" fill="#000000">
            <path d="M416,0 L96,0 C78.326888,0 64,14.326888 64,32 C64,49.673112 78.326888,64 96,64 L217.877333,64 L165.525333,448 L32,448 C14.326888,448 0,462.326888 0,480 C0,497.673112 14.326888,512 32,512 L352,512 C369.673112,512 384,497.673112 384,480 C384,462.326888 369.673112,448 352,448 L230.122667,448 L282.474667,64 L416,64 C433.673112,64 448,49.673112 448,32 C448,14.326888 433.673112,0 416,0 Z" id="Path" fill-rule="nonzero"></path>
            <path d="M416,-10 C439.195959,-10 458,8.80404051 458,32 C458,55.1959595 439.195959,74 416,74 L291.204,74 L241.578,438 L352,438 C374.964,438 393.62348,456.42984 393.994373,479.305453 L394,480 C394,503.195959 375.195959,522 352,522 L32,522 C8.80404051,522 -10,503.195959 -10,480 C-10,456.804041 8.80404051,438 32,438 L156.795,438 L206.42,74 L96,74 C73.0360001,74 54.37652,55.5701599 54.0056268,32.6945468 L54,32 C54,8.80404051 72.8040405,-10 96,-10 L416,-10 Z M416,0 L96,0 C78.326888,0 64,14.326888 64,32 C64,49.673112 78.326888,64 96,64 L217.877333,64 L165.525333,448 L32,448 C14.326888,448 0,462.326888 0,480 C0,497.673112 14.326888,512 32,512 L352,512 C369.673112,512 384,497.673112 384,480 C384,462.326888 369.673112,448 352,448 L230.122667,448 L282.474667,64 L416,64 C433.673112,64 448,49.673112 448,32 C448,14.326888 433.673112,0 416,0 Z" id="Path" fill-rule="nonzero"></path>
        </g>
    </g>
</svg>