<?xml version="1.0" encoding="UTF-8"?>
<svg width="512px" height="512px" viewBox="0 0 512 512" version="1.1" xmlns="http://www.w3.org/2000/svg" xmlns:xlink="http://www.w3.org/1999/xlink">
    <title>list</title>
    <g id="list" stroke="none" fill="none" fill-rule="evenodd">
        <g id="Bold" stroke-width="1" fill="#000000">
            <path d="M485,149.333333 C499.911688,149.333333 512,135.006445 512,117.333333 C512,99.6602216 499.911688,85.3333333 485,85.3333333 L224,85.3333333 C209.088312,85.3333333 197,99.6602213 197,117.333333 C197,135.006445 209.088312,149.333333 224,149.333333 L485,149.333333 Z" id="Path" fill-rule="nonzero"></path>
            <path d="M485.000001,234.666667 L224.000001,234.666667 C209.088312,234.666667 197.000001,248.993555 197.000001,266.666667 C197.000001,284.339778 209.088312,298.666667 224.000001,298.666667 L485.000001,298.666667 C499.911688,298.666667 512.000001,284.339779 512.000001,266.666667 C512.000001,248.993555 499.911688,234.666667 485.000001,234.666667 L485.000001,234.666667 Z" id="Path" fill-rule="nonzero"></path>
            <path d="M480,384 L170.666667,384 C152.993555,384 138.666667,398.326888 138.666667,416 C138.666667,433.673112 152.993555,448 170.666667,448 L480,448 C497.673112,448 512,433.673112 512,416 C512,398.326888 497.673112,384 480,384 Z" id="Path" fill-rule="nonzero"></path>
        </g>
        <path d="M121.746202,59.5049315 C111.067312,55.0635451 98.8302923,57.5225101 90.678613,65.6999985 L33.6738626,122.885232 C22.5389347,134.055414 22.5389347,152.145009 33.6738626,163.315192 C44.8087905,174.485374 62.8412932,174.485374 73.9762211,163.315192 L82.3179163,154.947086 L82.3179163,333.727187 C82.3179163,349.510311 95.0679788,362.319803 110.820291,362.319803 C126.572604,362.319803 139.322667,349.510311 139.322667,333.727187 L139.322667,85.9245093 C139.322667,74.3730922 132.387089,63.946318 121.7272,59.5049315 L121.746202,59.5049315 Z" id="Path" fill="#000000"></path>
    </g>
</svg>