<svg width="24" height="24" viewBox="0 0 24 24" fill="none" xmlns="http://www.w3.org/2000/svg">
  <path d="M3 17.2747V9.4C3 7.15979 3 6.03969 3.43597 5.18404C3.81947 4.43139 4.43139 3.81947 5.18404 3.43597C6.03969 3 7.15979 3 9.4 3H14.6C16.8402 3 17.9603 3 18.816 3.43597C19.5686 3.81947 20.1805 4.43139 20.564 5.18404C21 6.03969 21 7.15979 21 9.4V10.6C21 12.8402 21 13.9603 20.564 14.816C20.1805 15.5686 19.5686 16.1805 18.816 16.564C17.9603 17 16.8402 17 14.6 17H10.3592C9.85793 17 9.60732 17 9.37215 17.0578C9.16368 17.109 8.96482 17.1935 8.7832 17.3079C8.57832 17.4371 8.40431 17.6174 8.05628 17.9781L7.12716 18.9411C5.8371 20.2782 5.19206 20.9468 4.63642 20.9975C4.15448 21.0415 3.68091 20.8503 3.36464 20.484C3 20.0617 3 19.1327 3 17.2747Z" fill="currentColor"/>
</svg>
