<?xml version="1.0" encoding="UTF-8"?>
<svg width="512px" height="512px" viewBox="0 0 512 512" version="1.1" xmlns="http://www.w3.org/2000/svg" xmlns:xlink="http://www.w3.org/1999/xlink">
    <title>stats white</title>
    <g id="stats-white" stroke="none" fill="none" fill-rule="evenodd" stroke-width="1">
        <g id="Bold" fill="#FFFFFF">
            <path d="M117.333333,448 C87.8781467,448 64,424.121853 64,394.666667 L64,32 C64,14.326888 49.673112,0 32,0 L32,0 C14.326888,0 0,14.326888 0,32 L0,394.666667 C0,459.468077 52.5319227,512 117.333333,512 L480,512 C497.673112,512 512,497.673112 512,480 L512,480 C512,462.326888 497.673112,448 480,448 L117.333333,448 Z" id="Path" fill-rule="nonzero"></path>
            <path d="M416,384 C433.673112,384 448,369.673112 448,352 L448,224 C448,206.326888 433.673112,192 416,192 C398.326888,192 384,206.326888 384,224 L384,352 C384,369.673112 398.326888,384 416,384 Z" id="Path" fill-rule="nonzero"></path>
            <path d="M160,384 C177.673112,384 192,369.673112 192,352 L192,224 C192,206.326888 177.673112,192 160,192 C142.326888,192 128,206.326888 128,224 L128,352 C128,369.673112 142.326888,384 160,384 Z" id="Path" fill-rule="nonzero"></path>
            <path d="M288,384 C305.673112,384 320,369.673112 320,352 L320,117.333333 C320,99.6602213 305.673112,85.3333333 288,85.3333333 C270.326888,85.3333333 256,99.6602213 256,117.333333 L256,352 C256,369.673112 270.326888,384 288,384 Z" id="Path" fill-rule="nonzero"></path>
        </g>
    </g>
</svg>
