<?xml version="1.0" encoding="UTF-8"?>
<svg width="512px" height="512px" viewBox="0 0 512 512" version="1.1" xmlns="http://www.w3.org/2000/svg" xmlns:xlink="http://www.w3.org/1999/xlink">
    <title>arrow-up-from-square</title>
    <g id="arrow-up-from-square" stroke="none" fill="none" fill-rule="evenodd" stroke-width="1">
        <g id="Layer_1" fill="#FFFFFF">
            <path d="M115.562667,160.810667 C103.338667,148.053333 103.765333,127.786667 116.522667,115.562667 L203.690667,32.064 C217.301333,18.432 236.053333,10.6666667 256,10.6666667 C275.946667,10.6666667 294.698667,18.432 308.8,32.5333333 L395.456,115.562667 C408.213333,127.786667 408.661333,148.032 396.416,160.810667 C390.144,167.381333 381.738667,170.666667 373.312,170.666667 C365.333333,170.666667 357.376,167.722667 351.168,161.770667 L287.978667,101.226667 L287.978667,330.666667 C287.978667,348.352 273.664,362.666667 255.978667,362.666667 C238.293333,362.666667 223.978667,348.352 223.978667,330.666667 L223.978667,101.226667 L160.789333,161.770667 C148.032,173.994667 127.765333,173.568 115.541333,160.810667 L115.562667,160.810667 Z M437.333333,192 C419.648,192 405.333333,206.314667 405.333333,224 L405.333333,394.666667 C405.333333,424.064 381.397333,448 352,448 L160,448 C130.602667,448 106.666667,424.064 106.666667,394.666667 L106.666667,224 C106.666667,206.314667 92.352,192 74.6666667,192 C56.9813333,192 42.6666667,206.314667 42.6666667,224 L42.6666667,394.666667 C42.6666667,459.370667 95.296,512 160,512 L352,512 C416.704,512 469.333333,459.370667 469.333333,394.666667 L469.333333,224 C469.333333,206.314667 455.018667,192 437.333333,192 Z" id="Shape" fill-rule="nonzero"></path>
        </g>
    </g>
</svg>
