<svg width="24" height="24" viewBox="0 0 24 24" fill="none" xmlns="http://www.w3.org/2000/svg">
  <path d="M20.362,4.32698 C19.7202,4 18.8802,4 17.2,4 L6.8,4 C5.11984,4 4.27976,4 3.63803,4.32698 C3.07354,4.6146 2.6146,5.07354 2.32698,5.63803 C2,6.27976 2,7.11984 2,8.8 L2,15.2 C2,16.8802 2,17.7202 2.32698,18.362 C2.6146,18.9265 3.07354,19.3854 3.63803,19.673 C4.27976,20 5.11984,20 6.8,20 L17.2,20 C18.8802,20 19.7202,20 20.362,19.673 C20.9265,19.3854 21.3854,18.9265 21.673,18.362 C22,17.7202 22,16.8802 22,15.2 L22,8.8 C22,7.11984 22,6.27976 21.673,5.63803 C21.3854,5.07354 20.9265,4.6146 20.362,4.32698 Z M10.5132,8.14512 C9.84668,7.74653 9,8.22674 9,9.00337 L9,14.9969 C9,15.7735 9.84666,16.2537 10.5132,15.8552 L15.5104,12.8671 C16.1659,12.4751 16.1659,11.5254 15.5104,11.1334 L10.5132,8.14512 Z" fill="currentColor"/>
</svg>
