<?xml version="1.0" encoding="UTF-8"?>
<svg width="512px" height="512px" viewBox="0 0 512 512" version="1.1" xmlns="http://www.w3.org/2000/svg" xmlns:xlink="http://www.w3.org/1999/xlink">
    <title>chart-pie-alt</title>
    <g id="chart-pie-alt" stroke="none" fill="none" fill-rule="evenodd" stroke-width="1">
        <g id="Layer_1" fill="#FFFFFF">
            <path d="M395.861333,242.88 L298.901333,242.88 C291.025933,242.908372 283.463668,239.798284 277.886882,234.237512 C272.310096,228.676739 269.178275,221.123449 269.184,213.248 L269.184,115.904 C269.238567,93.1910907 258.748961,71.7390184 240.789333,57.8346667 C223.628559,44.3043464 201.16636,39.4904553 179.968,44.8 C67.3307217,72.8368338 -8.43833573,178.310774 0.947283352,294.004899 C10.3329024,409.699025 102.112319,501.580691 217.795923,511.095126 C333.479526,520.60956 439.037766,444.957991 467.2,332.352 C472.557849,311.110188 467.750092,288.584664 454.186667,271.381333 C440.12831,253.459093 418.639348,242.958269 395.861333,242.88 Z M405.098667,316.672 C384.640053,399.007315 307.529293,454.385526 222.972732,447.468383 C138.41617,440.551241 71.3307978,373.377077 64.5255028,288.81144 C57.7202077,204.245803 113.200363,127.208359 195.562667,106.858667 C196.065013,106.732756 196.580784,106.666667 197.098667,106.666667 C198.663701,106.725912 200.164631,107.30377 201.365333,108.309333 C203.699036,110.144416 205.078896,112.935497 205.12,115.904 L205.12,213.205333 C205.114328,238.056572 214.988313,261.890662 232.566794,279.457138 C250.145275,297.023615 273.986104,306.881316 298.837333,306.858667 L395.797333,306.858667 C398.843456,306.880921 401.712003,308.295547 403.584,310.698667 C405.03904,312.320303 405.605181,314.552969 405.098667,316.672 Z" id="Shape" fill-rule="nonzero"></path>
            <path d="M504.554667,158.848 C484.570313,85.3804495 427.202735,27.9722949 353.749333,7.936 C340.828929,4.27520505 326.94,6.86602143 316.20836,14.9388272 C305.47672,23.0116329 299.136829,35.6378143 299.072,49.0666667 L299.072,149.333333 C299.072,184.679557 327.725776,213.333333 363.072,213.333333 L463.744,213.333333 C477.091248,213.204931 489.615862,206.862208 497.617887,196.178898 C505.619912,185.495588 508.184734,171.692771 504.554667,158.848 L504.554667,158.848 Z" id="Path" fill-rule="nonzero"></path>
        </g>
    </g>
</svg>