<?xml version="1.0" encoding="UTF-8"?>
<svg width="450px" height="450px" viewBox="0 0 450 450" version="1.1" xmlns="http://www.w3.org/2000/svg" xmlns:xlink="http://www.w3.org/1999/xlink">
    <title>Group</title>
    <g id="Page-1" stroke="none" stroke-width="1" fill="none" fill-rule="evenodd">
        <g id="Frame-6" transform="translate(-305, -981)" fill="#000000">
            <g id="Group" transform="translate(304.4578, 956)">
                <g transform="translate(-34, 16.0141)" id="Combined-Shape">
                    <path d="M434.542222,8.98588444 C462.15646,8.98588444 484.542222,31.371647 484.542222,58.9858844 L484.542222,408.985884 C484.542222,436.600122 462.15646,458.985884 434.542222,458.985884 L84.5422222,458.985884 C56.9279847,458.985884 34.5422222,436.600122 34.5422222,408.985884 L34.5422222,58.9858844 C34.5422222,31.371647 56.9279847,8.98588444 84.5422222,8.98588444 L434.542222,8.98588444 Z M138.658556,131.97847 C137.220176,138.055462 139.034376,144.443757 143.452057,148.857698 L182.946224,188.296886 C189.978637,195.323346 189.983464,206.720315 182.957004,213.752728 C182.953412,213.756323 182.949819,213.759917 182.946224,213.763508 L129.816747,266.826463 C122.784334,273.852923 122.779507,285.249891 129.805967,292.282305 C132.167981,294.64632 135.141464,296.306118 138.393423,297.07582 L264.032304,326.813161 L359.304467,349.363402 C368.978304,351.65313 378.676689,345.667128 380.966418,335.993291 C382.404799,329.916298 380.590599,323.528001 376.172917,319.11406 L336.678362,279.674483 C329.645949,272.648024 329.641122,261.251055 336.667582,254.218642 L336.678362,254.207861 L389.807473,201.145272 C396.839887,194.118812 396.844713,182.721844 389.818253,175.68943 C387.456245,173.32542 384.48277,171.665625 381.23082,170.89592 L255.591084,141.158209 L160.320505,118.608355 C150.646668,116.318628 140.948283,122.304632 138.658556,131.97847 Z"></path>
                </g>
            </g>
        </g>
    </g>
</svg>