<?xml version="1.0" encoding="UTF-8"?>
<svg width="512px" height="512px" viewBox="0 0 512 512" version="1.1" xmlns="http://www.w3.org/2000/svg" xmlns:xlink="http://www.w3.org/1999/xlink">
    <title>mail</title>
    <g id="mail" stroke="none" fill="none" fill-rule="evenodd" stroke-width="1">
        <g id="Bold" fill="#000000">
            <path d="M394.666667,21.3333333 L117.333333,21.3333333 C52.561166,21.4038785 0.0705451715,73.8944993 0,138.666667 L0,373.333333 C0.0705451715,438.105501 52.561166,490.596121 117.333333,490.666667 L394.666667,490.666667 C459.438834,490.596121 511.929455,438.105501 512,373.333333 L512,138.666667 C511.929455,73.8944993 459.438834,21.4038785 394.666667,21.3333333 L394.666667,21.3333333 Z M394.666667,85.3333333 C407.604533,85.3764029 420.076656,90.1663662 429.717333,98.7946667 L291.050667,237.461333 C271.485521,256.148074 240.685146,256.148074 221.12,237.461333 L82.4533333,98.7946667 C92.0500717,90.2052742 104.454363,85.4180522 117.333333,85.3333333 L394.666667,85.3333333 Z M394.666667,426.666667 L117.333333,426.666667 C87.8781467,426.666667 64,402.78852 64,373.333333 L64,171.029333 L175.765333,282.794667 C197.038869,304.077408 225.897501,316.034702 255.989333,316.034702 C286.081166,316.034702 314.939798,304.077408 336.213333,282.794667 L448,171.029333 L448,373.333333 C448,402.78852 424.121853,426.666667 394.666667,426.666667 Z" id="Shape" fill-rule="nonzero"></path>
        </g>
    </g>
</svg>