<?xml version="1.0" encoding="UTF-8"?>
<svg width="512px" height="512px" viewBox="0 0 512 512" version="1.1" xmlns="http://www.w3.org/2000/svg" xmlns:xlink="http://www.w3.org/1999/xlink">
    <title>phone</title>
    <g id="phone" stroke="none" fill="none" fill-rule="evenodd" stroke-width="1">
        <g id="Layer_1" fill="#000000">
            <path d="M472.32,41.3866667 C472.32,41.3866667 449.066667,21.12 449.066667,21.12 C419.84,-7.04 373.12,-6.82666667 343.466667,22.8266667 L299.306667,70.6133333 C285.226667,84.6933333 277.333333,103.466667 277.333333,123.52 C277.333333,143.573333 285.013333,162.133333 299.093333,176.213333 L307.626667,184.746667 C280.533333,241.92 240,282.453333 184.746667,308.053333 L176,299.52 C161.92,285.44 143.146667,277.76 123.306667,277.76 C103.466667,277.76 84.6933333,285.44 71.2533333,298.88 L21.76,344.746667 C7.68,358.826667 -0.213333333,377.6 -0.213333333,397.653333 C-0.213333333,417.706667 7.25333333,435.626667 20.6933333,449.493333 C20.6933333,449.493333 40.5333333,472.32 40.96,472.746667 C66.56,498.346667 101.12,512.426667 138.24,512.426667 C298.666667,512.426667 511.573333,299.52 511.573333,139.093333 C511.573333,101.973333 497.493333,67.4133333 471.893333,41.8133333 L472.32,41.3866667 Z M138.666667,448 C119.04,448 100.693333,440.746667 87.2533333,427.733333 C87.2533333,427.733333 67.6266667,405.12 66.9866667,404.693333 C64.2133333,401.92 63.7866667,398.72 63.7866667,397.226667 C63.7866667,395.733333 64.2133333,392.32 66.1333333,390.613333 L115.626667,344.746667 C118.4,341.973333 121.6,341.546667 123.093333,341.546667 C124.586667,341.546667 128,341.973333 130.56,344.746667 L154.666667,368.64 C163.626667,377.386667 176.853333,380.16 188.586667,375.68 C276.053333,342.4 338.773333,279.68 374.826667,189.653333 C379.52,177.92 376.96,164.266667 368,155.306667 L344.106667,130.986667 C341.333333,128.213333 340.906667,125.013333 340.906667,123.52 C340.906667,122.026667 341.333333,118.613333 344.96,115.2 L389.12,67.4133333 C393.386667,63.36 400,63.36 404.266667,67.4133333 C404.693333,67.84 427.306667,87.68 427.306667,87.68 C440.32,101.12 447.573333,119.253333 447.573333,139.093333 C447.573333,275.626667 255.786667,448.426667 138.24,448.426667 L138.666667,448 Z" id="Shape" fill-rule="nonzero" transform="translate(255.68, 256.357) scale(-1, 1) translate(-255.68, -256.357)"></path>
        </g>
    </g>
</svg>