<?xml version="1.0" encoding="UTF-8"?>
<svg width="512px" height="512px" viewBox="0 0 512 512" version="1.1" xmlns="http://www.w3.org/2000/svg" xmlns:xlink="http://www.w3.org/1999/xlink">
    <title>users</title>
    <g id="users" stroke="none" fill="none" fill-rule="evenodd" stroke-width="1">
        <g id="Layer_1" fill="#FFFFFF">
            <path d="M160,277.333333 C106.980664,277.333333 64,234.352669 64,181.333333 C64,128.313997 106.980664,85.3333333 160,85.3333333 C213.019336,85.3333333 256,128.313997 256,181.333333 C255.941215,234.328301 212.994967,277.274548 160,277.333333 L160,277.333333 Z M160,149.333333 C142.326888,149.333333 128,163.660221 128,181.333333 C128,199.006445 142.326888,213.333333 160,213.333333 C177.673112,213.333333 192,199.006445 192,181.333333 C192,163.660221 177.673112,149.333333 160,149.333333 L160,149.333333 Z M320,480 C320,391.63444 248.36556,320 160,320 C71.63444,320 0,391.63444 0,480 C0,497.673112 14.326888,512 32,512 C49.673112,512 64,497.673112 64,480 C64,426.980664 106.980664,384 160,384 C213.019336,384 256,426.980664 256,480 C256,497.673112 270.326888,512 288,512 C305.673112,512 320,497.673112 320,480 Z M512,384 C512.005373,326.185214 478.638539,273.561854 426.343205,248.909318 C374.047871,224.256782 312.221272,232.005018 267.626667,268.8 C258.808399,276.078691 254.543119,287.508968 256.437516,298.785158 C258.331914,310.061347 266.098185,319.470327 276.81085,323.467825 C287.523515,327.465323 299.555066,325.444025 308.373333,318.165333 C323.614309,305.482059 342.838785,298.577866 362.666667,298.666667 C409.794965,298.666667 448,336.871701 448,384 C448,401.673112 462.326888,416 480,416 C497.673112,416 512,401.673112 512,384 L512,384 Z M373.333333,192 C320.313997,192 277.333333,149.019336 277.333333,96 C277.333333,42.980664 320.313997,0 373.333333,0 C426.352669,0 469.333333,42.980664 469.333333,96 C469.274548,148.994967 426.328301,191.941215 373.333333,192 L373.333333,192 Z M373.333333,64 C355.660221,64 341.333333,78.326888 341.333333,96 C341.333333,113.673112 355.660221,128 373.333333,128 C391.006445,128 405.333333,113.673112 405.333333,96 C405.333333,78.326888 391.006445,64 373.333333,64 L373.333333,64 Z" id="Shape" fill-rule="nonzero"></path>
        </g>
    </g>
</svg>