<?xml version="1.0" encoding="UTF-8"?>
<svg width="533px" height="532px" viewBox="0 0 533 532" version="1.1" xmlns="http://www.w3.org/2000/svg" xmlns:xlink="http://www.w3.org/1999/xlink">
    <title>underline</title>
    <g id="underline" stroke="none" fill="none" fill-rule="evenodd" stroke-width="1">
        <g id="Bold" fill="#000000">
            <path d="M266,415.098667 C371.989934,414.981096 457.882429,329.088601 458,223.098667 L458,42 C458,24.326888 443.673112,10 426,10 C408.326888,10 394,24.326888 394,42 L394,223.098667 C394,293.791115 336.692448,351.098667 266,351.098667 C195.307552,351.098667 138,293.791115 138,223.098667 L138,42 C138,24.326888 123.673112,10 106,10 C88.326888,10 74,24.326888 74,42 L74,223.098667 C74.1175708,329.088601 160.010066,414.981096 266,415.098667 Z" id="Path" fill-rule="nonzero"></path>
            <path d="M426,0 C449.195959,0 468,18.8040405 468,42 L468,223.109759 C467.876306,334.613876 377.515209,424.974973 266.011093,425.098661 L265.988907,425.098661 C154.484791,424.974973 64.1236936,334.613876 64,223.098667 L64,42 C64,18.8040405 82.8040405,0 106,0 C129.195959,0 148,18.8040405 148,42 L148,223.098667 C148,288.268267 200.8304,341.098667 266,341.098667 C331.1696,341.098667 384,288.268267 384,223.098667 L384,42 C384,18.8040405 402.804041,0 426,0 Z M426,10 C408.326888,10 394,24.326888 394,42 L394,223.098667 C394,293.791115 336.692448,351.098667 266,351.098667 C195.307552,351.098667 138,293.791115 138,223.098667 L138,42 C138,24.326888 123.673112,10 106,10 C88.326888,10 74,24.326888 74,42 L74,223.098667 C74.1175708,329.088601 160.010066,414.981096 266,415.098667 C371.989934,414.981096 457.882429,329.088601 458,223.098667 L458,42 C458,24.326888 443.673112,10 426,10 Z" id="Path" fill-rule="nonzero"></path>
            <path d="M490.938667,458 L42,458 C24.326888,458 10,472.326888 10,490 C10,507.673112 24.326888,522 42,522 L490.938667,522 C508.611779,522 522.938667,507.673112 522.938667,490 C522.938667,472.326888 508.611779,458 490.938667,458 Z" id="Path" fill-rule="nonzero"></path>
            <path d="M490.938667,448 C514.134626,448 532.938667,466.804041 532.938667,490 C532.938667,513.195959 514.134626,532 490.938667,532 L42,532 C18.8040405,532 0,513.195959 0,490 C0,466.804041 18.8040405,448 42,448 L490.938667,448 Z M490.938667,458 L42,458 C24.326888,458 10,472.326888 10,490 C10,507.673112 24.326888,522 42,522 L490.938667,522 C508.611779,522 522.938667,507.673112 522.938667,490 C522.938667,472.326888 508.611779,458 490.938667,458 Z" id="Path" fill-rule="nonzero"></path>
        </g>
    </g>
</svg>